<?xml version="1.0" encoding="UTF-8" standalone="no"?>
<svg
   xmlns:dc="http://purl.org/dc/elements/1.1/"
   xmlns:cc="http://creativecommons.org/ns#"
   xmlns:rdf="http://www.w3.org/1999/02/22-rdf-syntax-ns#"
   xmlns:svg="http://www.w3.org/2000/svg"
   xmlns="http://www.w3.org/2000/svg"
   xmlns:xlink="http://www.w3.org/1999/xlink"
   xmlns:sodipodi="http://sodipodi.sourceforge.net/DTD/sodipodi-0.dtd"
   xmlns:inkscape="http://www.inkscape.org/namespaces/inkscape"
   inkscape:export-ydpi="96"
   inkscape:export-xdpi="96"
   inkscape:export-filename="C:\Users\benja\Documents\projects\dev\realearn_companion\resources\clean-icon.png"
   sodipodi:docname="clean-icon.svg"
   inkscape:version="1.0 (4035a4fb49, 2020-05-01)"
   width="512px"
   height="512px"
   viewBox="0 0 512 512"
   version="1.1"
   id="SVGRoot">
  <defs
     id="defs2589" />
  <sodipodi:namedview
     inkscape:snap-page="true"
     inkscape:snap-object-midpoints="true"
     inkscape:pagecheckerboard="true"
     inkscape:window-maximized="0"
     inkscape:window-y="2"
     inkscape:window-x="221"
     inkscape:window-height="1040"
     inkscape:window-width="1375"
     showgrid="false"
     inkscape:document-rotation="0"
     inkscape:current-layer="layer2"
     inkscape:document-units="px"
     inkscape:cy="168.72273"
     inkscape:cx="176.17307"
     inkscape:zoom="0.7"
     inkscape:pageshadow="2"
     inkscape:pageopacity="0"
     borderopacity="1.0"
     bordercolor="#666666"
     pagecolor="#ffffff"
     id="base" />
  <metadata
     id="metadata2592">
    <rdf:RDF>
      <cc:Work
         rdf:about="">
        <dc:format>image/svg+xml</dc:format>
        <dc:type
           rdf:resource="http://purl.org/dc/dcmitype/StillImage" />
        <dc:title></dc:title>
      </cc:Work>
    </rdf:RDF>
  </metadata>
  <g
     style="display:none"
     inkscape:label="Background (helper)"
     id="layer3"
     inkscape:groupmode="layer">
    <rect
       y="0"
       x="0"
       height="512"
       width="512"
       id="rect3248"
       style="fill:#252525;fill-opacity:1;stroke:none;stroke-width:1;stroke-linecap:round;stroke-linejoin:round;stroke-miterlimit:4;stroke-dasharray:none;stroke-dashoffset:0" />
  </g>
  <g
     style="display:inline"
     id="layer1"
     inkscape:groupmode="layer"
     inkscape:label="LEDs">
    <text
       y="-651.77966"
       x="548.3363"
       xml:space="preserve"
       style="font-style:normal;font-weight:normal;font-size:498.89px;line-height:1.25;font-family:sans-serif;letter-spacing:12.4722473px;display:inline;fill:#000000;fill-opacity:1;stroke:none;stroke-width:0.999999;stroke-opacity:1"
       id="text867"
       transform="matrix(0.66397329,0.44974015,-0.45026031,0.66320624,201.94081,-28.649595)"><textPath
         xlink:href="#circle1035"
         id="textPath869"
         style="font-style:normal;font-variant:normal;font-weight:normal;font-stretch:normal;font-size:498.89px;font-family:'Source Sans Pro';-inkscape-font-specification:'Source Sans Pro';fill:#ffffff;stroke:none;stroke-width:0.999999;stroke-opacity:1;">.......<tspan
   style="font-style:normal;font-variant:normal;font-weight:normal;font-stretch:normal;font-size:498.89px;font-family:'Source Sans Pro';-inkscape-font-specification:'Source Sans Pro';fill:#808080;stroke-width:0.999999;"
   id="tspan898">...</tspan></textPath></text>
    <text
       xml:space="preserve"
       style="font-style:normal;font-weight:normal;font-size:39.9999px;line-height:1.25;font-family:sans-serif;display:inline;fill:#ffd5d5;fill-opacity:1;stroke:none;stroke-width:0.999999"
       x="415.02316"
       y="-505.30029"
       id="text1034"><tspan
         sodipodi:role="line"
         id="tspan1032"
         x="415.02316"
         y="-505.30029"
         style="fill:#ffd5d5;stroke-width:0.999999" /></text>
  </g>
  <g
     style="display:none"
     inkscape:label="LED alignment circle (helper)"
     id="layer2"
     inkscape:groupmode="layer">
    <circle
       r="256"
       style="display:inline;fill:#666666;fill-opacity:0.228916;stroke:none;stroke-width:10.9313;stroke-miterlimit:4;stroke-dasharray:21.8627, 10.9313;stroke-dashoffset:0;stroke-opacity:1"
       id="circle1035"
       transform="rotate(84.932981)"
       cy="-232.38939"
       cx="277.60971" />
  </g>
  <g
     style="display:inline"
     inkscape:label="Magic wand"
     id="layer4"
     inkscape:groupmode="layer">
    <path
       id="path1015"
       style="display:inline;opacity:1;fill:#ffcc00;fill-opacity:1;fill-rule:nonzero;stroke:none;stroke-width:2.40641"
       d="m 317.68008,213.27681 52.62606,-52.34324 -19.23972,-19.23963 -52.62604,52.34303 z m 80.35369,-52.34324 c 0,3.11246 -1.13222,5.94176 -3.39529,7.9223 L 164.04584,399.44849 c -2.26342,2.26338 -4.80987,3.39517 -8.20517,3.39517 -3.11225,0 -5.65871,-1.13216 -7.9223,-3.39517 l -35.64975,-35.36684 c -1.98055,-2.26362 -3.11226,-4.81004 -3.11226,-8.20527 0,-3.11234 1.13216,-5.94174 3.11226,-7.92221 L 343.14412,117.3615 c 1.98065,-2.2635 4.80986,-3.3953 7.9223,-3.3953 3.39531,0 5.94176,1.13225 8.20518,3.3953 l 35.36688,35.36691 c 2.26352,2.2635 3.3953,4.80996 3.39529,8.20516 z m -242.47605,-34.2353 17.5422,5.37595 -17.5422,5.37567 -5.37576,17.54202 -5.37566,-17.54202 -17.54211,-5.37567 17.54211,-5.37595 5.37566,-17.54193 z m 62.81197,29.1424 35.08377,10.75181 -35.08377,10.75157 -10.75178,35.08401 -10.75154,-35.08401 -35.08395,-10.75157 35.08395,-10.75181 10.75154,-35.08396 z m 166.93213,85.7296 17.54182,5.37576 -17.54182,5.37584 -5.37577,17.54209 -5.37583,-17.54209 -17.8251,-5.37584 17.8251,-5.37576 5.37583,-17.54186 z m -114.87207,-114.872 17.54185,5.37595 -17.54185,5.37567 -5.37574,17.54202 -5.37587,-17.54202 -17.54208,-5.37567 17.54208,-5.37595 5.37587,-17.54193 z" />
  </g>
</svg>
