<svg xmlns="http://www.w3.org/2000/svg" version="1.1" viewBox="236 80 125 125" width="100%" height="100%">
    <!-- "Font Awesome by Dave Gandy - http://fontawesome.io" -->
    <path
        d="m 324.52736,123.85107 21.86906,-21.75152 -7.99518,-7.995134 -21.86906,21.751414 z m 33.39143,-21.75152 c 0,1.29338 -0.47049,2.46911 -1.41092,3.29216 l -95.8241,95.82404 c -0.94059,0.94059 -1.99878,1.41092 -3.4097,1.41092 -1.29332,0 -2.35151,-0.47049 -3.29216,-1.41092 l -14.81447,-14.69687 c -0.82305,-0.94065 -1.29332,-1.99884 -1.29332,-3.40976 0,-1.29332 0.47049,-2.46911 1.29332,-3.2921 l 95.94164,-95.824104 c 0.82305,-0.94059 1.99878,-1.410918 3.29216,-1.410918 1.41092,0 2.46911,0.470488 3.4097,1.410918 l 14.69693,14.69693 c 0.94059,0.94059 1.41092,1.998784 1.41092,3.409704 z m -100.76231,-14.226664 7.28978,2.23397 -7.28978,2.23392 -2.23392,7.28966 -2.23391,-7.28966 -7.28973,-2.23392 7.28973,-2.23397 2.23391,-7.289669 z m 26.10187,12.11028 14.57928,4.467954 -14.57928,4.46789 -4.46795,14.57933 -4.46788,-14.57933 -14.57934,-4.46789 14.57934,-4.467954 4.46788,-14.57933 z m 69.36961,35.625404 7.28961,2.23392 -7.28961,2.23397 -2.23392,7.28972 -2.23397,-7.28972 -7.40732,-2.23397 7.40732,-2.23392 2.23397,-7.28961 z m -47.73574,-47.735684 7.28961,2.23397 -7.28961,2.23392 -2.23392,7.28966 -2.23397,-7.28966 -7.28972,-2.23392 7.28972,-2.23397 2.23397,-7.289669 z" />
</svg>